<?xml version="1.0" encoding="utf-8"?>
<!-- Generator: Adobe Illustrator 23.0.3, SVG Export Plug-In . SVG Version: 6.00 Build 0)  -->
<svg version="1.0" id="Layer_1" xmlns="http://www.w3.org/2000/svg" xmlns:xlink="http://www.w3.org/1999/xlink" x="0px" y="0px"
	 viewBox="0 0 876 780" style="enable-background:new 0 0 876 780;" xml:space="preserve">
<style type="text/css">
	.st0{fill-rule:evenodd;clip-rule:evenodd;fill:url(#SVGID_1_);}
	.st1{fill-rule:evenodd;clip-rule:evenodd;fill:url(#SVGID_2_);}
	.st2{fill-rule:evenodd;clip-rule:evenodd;fill:url(#SVGID_3_);}
	.st3{fill-rule:evenodd;clip-rule:evenodd;fill:#C1C3DA;}
	.st4{fill-rule:evenodd;clip-rule:evenodd;fill:#FF6C50;fill-opacity:0.64;}
	.st5{fill-rule:evenodd;clip-rule:evenodd;fill:#4234F8;fill-opacity:0.64;}
</style>
<g>
	
		<linearGradient id="SVGID_1_" gradientUnits="userSpaceOnUse" x1="132.8027" y1="786.9883" x2="132.8027" y2="785.9883" gradientTransform="matrix(-435.9999 0 0 -428.4803 58338.9883 337412)">
		<stop  offset="0" style="stop-color:#3C0C34"/>
		<stop  offset="1" style="stop-color:#D32027;stop-opacity:0"/>
	</linearGradient>
	<path class="st0" d="M481.7,549.3C444,786.6,44.9,441,308.4,376.1C571.9,311.3,386,203,481.7,203S655,280.5,655,376.1
		C655,471.8,519.5,311.9,481.7,549.3z"/>
	
		<radialGradient id="SVGID_2_" cx="132.4177" cy="786.2007" r="0.5799" gradientTransform="matrix(-92.4436 -339.8581 339.858 -92.4436 -254274.3438 117835.9531)" gradientUnits="userSpaceOnUse">
		<stop  offset="0" style="stop-color:#FF6C50;stop-opacity:0"/>
		<stop  offset="0.5171" style="stop-color:#9A459A;stop-opacity:0.64"/>
		<stop  offset="0.9212" style="stop-color:#4368B1;stop-opacity:0.25"/>
		<stop  offset="1" style="stop-color:#351854;stop-opacity:0.24"/>
	</radialGradient>
	<path class="st1" d="M604,353c-95,0-172-77-172-172S530.8-31.5,604,9s73.2,223,172,172S699,353,604,353L604,353z"/>
	
		<linearGradient id="SVGID_3_" gradientUnits="userSpaceOnUse" x1="132.1973" y1="786.9883" x2="132.1973" y2="785.9883" gradientTransform="matrix(435.9999 0 0 -428.4803 -57200.9883 337412)">
		<stop  offset="0" style="stop-color:#7D2268;stop-opacity:0.8"/>
		<stop  offset="1" style="stop-color:#C35FA4;stop-opacity:0"/>
	</linearGradient>
	<path class="st2" d="M392.3,549.3C430,786.6,829.1,441,565.6,376.1C302.1,311.3,488,203,392.3,203S219,280.5,219,376.1
		C219,471.8,354.5,311.9,392.3,549.3z"/>
	<path class="st3" d="M260.6,103l-3.6,1.7l-1,3.5l1.2,3.4l3.5,1.4l3.2-1.6l2.1-3.2l-1.6-3.7L260.6,103z"/>
	<path class="st4" d="M262.3,142l-1.8,0.8l-0.5,1.8l0.6,1.7l1.7,0.7l1.6-0.8l1.1-1.6l-0.8-1.8L262.3,142z"/>
	<path class="st5" d="M234.7,124l-2.9,1.3l-0.8,2.8l0.9,2.7l2.8,1.2l2.6-1.3l1.7-2.5l-1.3-2.9L234.7,124z"/>
</g>
</svg>
