<?xml version="1.0" encoding="utf-8"?>
<!-- Generator: Adobe Illustrator 23.0.3, SVG Export Plug-In . SVG Version: 6.00 Build 0)  -->
<svg version="1.0" id="Layer_1" xmlns="http://www.w3.org/2000/svg" xmlns:xlink="http://www.w3.org/1999/xlink" x="0px" y="0px"
	 viewBox="0 0 1440 318" style="enable-background:new 0 0 1440 318;" xml:space="preserve">
<style type="text/css">
	.st0{fill-rule:evenodd;clip-rule:evenodd;fill:url(#SVGID_1_);}
	.st1{fill-rule:evenodd;clip-rule:evenodd;fill:url(#SVGID_2_);}
</style>
<g>
	<g>
		
			<linearGradient id="SVGID_1_" gradientUnits="userSpaceOnUse" x1="825.8041" y1="3.9106" x2="825.6368" y2="6.3995" gradientTransform="matrix(313.29 0 0 90.9924 -257524.9219 -472.0172)">
			<stop  offset="0" style="stop-color:#682163;stop-opacity:0.6"/>
			<stop  offset="1" style="stop-color:#51045F;stop-opacity:0.5"/>
		</linearGradient>
		<path class="st0" d="M1167.3,101.1c66.7,7.2,160.3-24.5-11.3-78.3c-1.5-0.5-3-0.7-4.5-0.7H1070c-26.2,0-31.6,37-6.5,44.5
			C1123.8,84.7,1140.8,98.2,1167.3,101.1z"/>
	</g>
	
		<linearGradient id="SVGID_2_" gradientUnits="userSpaceOnUse" x1="832.0134" y1="2.0302" x2="831.9067" y2="2.823" gradientTransform="matrix(-224.434 216.7334 -84.3829 -87.381 188190.2031 -179936.8906)">
		<stop  offset="0" style="stop-color:#E100FF;stop-opacity:0.32"/>
		<stop  offset="1" style="stop-color:#0B0D19;stop-opacity:0"/>
	</linearGradient>
	<path class="st1" d="M1223.5,117.8c-85.8,37.8-94.8,126.4-73.4,148.6c21.5,22.2,89.1-8.3,151.1-68.1s94.8-126.4,73.4-148.6
		C1353.1,27.4,1309.3,80,1223.5,117.8L1223.5,117.8z"/>
</g>
</svg>
